<?xml version="1.0" standalone="no"?>
<!DOCTYPE svg PUBLIC "-//W3C//DTD SVG 20010904//EN"
 "http://www.w3.org/TR/2001/REC-SVG-20010904/DTD/svg10.dtd">
<svg version="1.0" xmlns="http://www.w3.org/2000/svg"
 width="512.000000pt" height="512.000000pt" viewBox="0 0 512.000000 512.000000"
 preserveAspectRatio="xMidYMid meet">
<metadata>
Created by potrace 1.11, written by Peter Selinger 2001-2013
</metadata>
<g transform="translate(0.000000,512.000000) scale(0.100000,-0.100000)"
fill="#000000" stroke="none">
<path d="M1647 4124 c-1 -1 -32 -4 -69 -8 -259 -22 -528 -138 -763 -327 -94
-76 -234 -224 -316 -334 -108 -146 -180 -273 -289 -510 -34 -74 -120 -344
-135 -428 -3 -12 -8 -35 -12 -52 -3 -16 -7 -37 -8 -45 -1 -8 -5 -28 -8 -45 -9
-39 -14 -77 -34 -230 -2 -16 -5 -111 -7 -210 -5 -227 13 -324 89 -476 86 -170
254 -324 435 -399 64 -26 94 -34 225 -59 82 -16 3533 -12 3632 4 192 31 338
103 470 232 121 118 209 269 238 410 3 15 9 42 13 58 4 17 6 111 6 210 -1 299
-45 568 -139 850 -119 355 -286 641 -514 878 -118 123 -273 245 -381 301 -210
109 -344 153 -528 172 -87 9 -501 8 -572 0 -110 -14 -207 -38 -313 -78 -59
-22 -115 -38 -125 -35 -9 3 -42 15 -72 28 -80 32 -259 77 -337 85 -56 5 -481
12 -486 8z"/>
</g>
</svg>
